<svg height="512" viewBox="0 0 256 256" width="512" xmlns="http://www.w3.org/2000/svg"><g id="Layer_30"><g><g><g><circle cx="134.278" cy="176.795" fill="#f5c84c" r="23.25"/></g></g><g><g><path d="m134.278 200.045c-6.391 0-12.177-2.579-16.38-6.752v33.158c0 1.773 2.042 2.766 3.437 1.672l10.7-8.396c1.317-1.033 3.169-1.033 4.486 0l10.7 8.396c1.395 1.094 3.437.101 3.437-1.672v-33.158c-4.203 4.173-9.99 6.752-16.38 6.752z" fill="#fc657e"/></g></g><g><g><path d="m146.897 174.447c1.011-.985.453-2.702-.944-2.905l-6.126-.89c-.555-.08-1.034-.429-1.282-.932l-2.74-5.551c-.625-1.266-2.43-1.266-3.055 0l-2.74 5.551c-.248.502-.728.851-1.282.932l-6.126.89c-1.397.203-1.955 1.92-.944 2.905l4.433 4.321c.401.391.585.955.49 1.508l-1.046 6.101c-.239 1.391 1.222 2.452 2.471 1.795l5.479-2.88c.496-.261 1.089-.261 1.585 0l5.479 2.88c1.249.657 2.71-.404 2.471-1.795l-1.046-6.101c-.095-.552.088-1.116.49-1.508z" fill="#fcdd86"/></g></g><g><g><path d="m70.241 162.024-14.001-14.001c-1.035-1.035-2.714-1.035-3.749 0l-6.265 6.265c-1.035 1.035-1.035 2.714 0 3.749l14.001 14.001c1.035 1.035 2.714 1.035 3.75 0l6.265-6.265c1.034-1.035 1.034-2.714-.001-3.749z" fill="#9be5f9"/></g></g><g><g><path d="m102.946 154.288-6.265-6.265c-1.035-1.035-2.714-1.035-3.75 0l-14.001 14.001c-1.035 1.035-1.035 2.714 0 3.749l6.265 6.265c1.035 1.035 2.714 1.035 3.75 0l14.001-14.001c1.035-1.035 1.035-2.713 0-3.749z" fill="#9be5f9"/></g></g><g><g><path d="m90.606 142.583v-5.659c-4.803 2.514-10.251 3.946-16.021 3.946-5.77 0-11.218-1.432-16.021-3.946v5.659c0 2.188-.597 4.284-1.667 6.097l13.343 13.343c.45.45.693 1.023.751 1.611h7.187c.059-.588.301-1.16.751-1.611l13.355-13.355c-1.068-1.812-1.678-3.897-1.678-6.085z" fill="#f9d0b4"/></g></g><g><g><path d="m111.028 176.795c0-6.23 2.455-11.883 6.445-16.057l-3.576-.9c-3.487-.878-6.894-2.038-10.195-3.453-.051.602-.294 1.192-.755 1.653l-14.001 14.001c-1.035 1.035-2.714 1.035-3.749 0l-6.265-6.265c-.585-.585-.828-1.375-.751-2.138h-7.187c.076.763-.166 1.553-.751 2.138l-6.265 6.265c-1.035 1.035-2.714 1.035-3.75 0l-14.001-14.001c-.459-.459-.702-1.044-.754-1.643-3.294 1.41-6.696 2.562-10.173 3.437l-19.985 5.03c-5.824 1.466-10.018 6.549-10.352 12.545l-2.452 42.284c-.168 2.904 2.141 5.351 5.049 5.351h110.34v-31.749c-4.244-4.212-6.872-10.048-6.872-16.498z" fill="#70d6f9"/></g></g><g><g><path d="m109.355 74.574c-.02-.986-.809-1.799-1.795-1.828-14.447-.424-22.058-6.149-24.983-9.016-.799-.783-2.087-.7-2.783.175-12.701 15.973-31.438 13.719-37.738 12.4-1.145-.24-2.243.623-2.244 1.793v27.997c0 19.126 15.649 34.775 34.775 34.775 19.126 0 34.775-15.649 34.775-34.775v-30.977c-.002-.181-.004-.363-.007-.544z" fill="#f9d0b4"/></g></g><g><g><path d="m101.798 37.688c-3.706 0-7.17 1.047-10.147 2.832-3.478-5.804-9.813-9.722-17.035-9.722h-10.2c-19.742 0-35.895 16.153-35.895 35.895v16.083c2.484-1.988 5.63-3.183 9.059-3.183.76 0 1.504.064 2.232.177v-1.671c.001-1.17 1.099-2.033 2.244-1.793 6.3 1.318 25.037 3.572 37.738-12.4.696-.875 1.985-.958 2.783-.175 2.925 2.867 10.536 8.593 24.983 9.016.986.029 1.776.842 1.795 1.828.004.181.005.362.005.544v4.651c.728-.113 1.472-.177 2.232-.177 3.914 0 7.459 1.556 10.07 4.074v-26.115c0-10.925-8.939-19.864-19.864-19.864z" fill="#754e34"/></g></g><g><g><path d="m111.592 79.593c-.76 0-1.504.064-2.232.177v26.326c0 .784-.036 1.56-.088 2.332.757.122 1.528.203 2.319.203 8.018 0 14.519-6.5 14.519-14.519s-6.5-14.519-14.518-14.519z" fill="#f9d0b4"/></g></g><g><g><path d="m39.811 106.095v-26.325c-.728-.113-1.472-.177-2.232-.177-8.018 0-14.519 6.5-14.519 14.519 0 8.018 6.5 14.519 14.519 14.519.791 0 1.562-.081 2.319-.203-.051-.773-.087-1.549-.087-2.333z" fill="#f9d0b4"/></g></g><g><g><path d="m3.267 206.618-.758 13.073c-.168 2.904 2.141 5.351 5.049 5.351h19.116v-18.424z" fill="#f9d0b4"/></g></g><g><g><path d="m86.59 112.429c-1.058-.887-2.635-.748-3.521.311-1.649 1.968-4.455 3.143-7.505 3.143s-5.855-1.175-7.506-3.144c-.888-1.059-2.465-1.197-3.522-.31s-1.196 2.464-.31 3.522c2.589 3.088 6.827 4.932 11.338 4.932 4.512 0 8.75-1.844 11.337-4.932.886-1.058.747-2.636-.311-3.522z"/></g></g><g><g><path d="m89.992 91.513c-2.451 0-4.438 1.987-4.438 4.438s1.987 4.438 4.438 4.438 4.438-1.987 4.438-4.438-1.987-4.438-4.438-4.438z"/></g></g><g><g><circle cx="60.19" cy="95.951" r="4.438"/></g></g><g><g><path d="m26.674 186.427c-1.381 0-2.5 1.119-2.5 2.5v33.852c0 1.381 1.119 2.5 2.5 2.5s2.5-1.119 2.5-2.5v-33.852c0-1.381-1.119-2.5-2.5-2.5z"/></g></g><g><g><g><path d="m72.01 160.256c-.001 0-.001 0 0 0l-14.002-14c-2.007-2.008-5.275-2.009-7.284 0l-6.267 6.266c-2.008 2.009-2.007 5.277.001 7.285l14 14.001c.974.973 2.268 1.509 3.643 1.509 1.377 0 2.67-.536 3.643-1.509l6.266-6.266c2.007-2.009 2.008-5.277 0-7.286zm-3.536 3.749-6.267 6.266c-.049.051-.163.05-.214 0l-14-14c-.059-.059-.059-.155 0-.214l6.266-6.266c.029-.029.068-.044.106-.044.039 0 .078.015.107.044l14 14c.06.059.06.155.002.214z"/></g></g></g><g><g><g><path d="m104.713 152.521-6.266-6.266c-2.007-2.006-5.275-2.008-7.284.001l-14 14c-.974.973-1.51 2.267-1.51 3.643s.536 2.67 1.51 3.642l6.265 6.266c1.005 1.004 2.323 1.506 3.643 1.506 1.319 0 2.639-.502 3.643-1.506l13.999-14c.975-.973 1.511-2.267 1.511-3.643s-.537-2.671-1.511-3.643zm-3.535 3.749-14 14c-.061.061-.154.06-.215 0l-6.266-6.266c-.05-.05-.05-.163.001-.213l13.999-14c.03-.03.069-.045.108-.045s.078.015.107.044l6.265 6.266c.052.05.052.163.001.214z"/></g></g></g><g><g><path d="m94.24 147.045c-.742-1.383-1.134-2.926-1.134-4.462v-5.084c0-1.381-1.119-2.5-2.5-2.5s-2.5 1.119-2.5 2.5v5.084c0 2.358.598 4.718 1.728 6.825.451.841 1.313 1.319 2.205 1.319.399 0 .804-.096 1.18-.297 1.217-.653 1.674-2.168 1.021-3.385z"/></g></g><g><g><path d="m77.366 161.134h-5.904c-1.381 0-2.5 1.119-2.5 2.5s1.119 2.5 2.5 2.5h5.904c1.381 0 2.5-1.119 2.5-2.5s-1.119-2.5-2.5-2.5z"/></g></g><g><g><path d="m58.565 135.304c-1.381 0-2.5 1.119-2.5 2.5v4.78c0 1.518-.371 3.034-1.074 4.383-.639 1.225-.163 2.734 1.062 3.373.369.192.764.283 1.153.283.902 0 1.773-.49 2.219-1.345 1.073-2.06 1.641-4.374 1.641-6.693v-4.78c-.001-1.382-1.12-2.501-2.501-2.501z"/></g></g><g><g><path d="m117.168 158.083-2.661-.669c-3.019-.76-6.036-1.759-8.97-2.969-1.276-.528-2.737.081-3.265 1.358-.526 1.276.082 2.738 1.358 3.264 3.155 1.302 6.404 2.377 9.655 3.195l2.661.669c.205.052.41.076.612.076 1.118 0 2.137-.756 2.423-1.891.338-1.338-.474-2.696-1.813-3.033z"/></g></g><g><g><path d="m117.155 222.542h-109.597c-.711 0-1.372-.285-1.86-.802-.488-.518-.734-1.193-.692-1.904l2.452-42.29c.274-4.931 3.677-9.054 8.466-10.259l19.985-5.03c3.403-.857 6.782-1.984 10.042-3.35 1.273-.534 1.873-1.999 1.34-3.272-.534-1.273-1.999-1.874-3.271-1.339-3.03 1.27-6.169 2.317-9.331 3.113l-19.985 5.03c-6.923 1.743-11.841 7.702-12.237 14.824l-2.452 42.284c-.12 2.067.626 4.118 2.048 5.625s3.426 2.371 5.497 2.371h109.598c1.381 0 2.5-1.119 2.5-2.5s-1.122-2.501-2.503-2.501z"/></g></g><g><g><g><path d="m111.854 74.525c-.047-2.331-1.901-4.209-4.222-4.277-13.804-.405-20.897-5.941-23.306-8.302-.884-.867-2.103-1.318-3.331-1.245-1.234.076-2.387.677-3.159 1.648h-.001c-11.622 14.617-28.537 12.919-35.269 11.51-1.299-.271-2.627.052-3.654.886-1.018.826-1.602 2.047-1.603 3.377v27.973c0 20.553 16.722 37.275 37.275 37.275s37.274-16.722 37.274-37.275v-30.977c.002-.2 0-.399-.004-.593zm-4.994 31.57c0 17.796-14.479 32.275-32.274 32.275-17.797 0-32.275-14.479-32.275-32.275v-27.19c6.72 1.264 25.831 3.104 39.013-12.916 3.7 3.43 11.586 8.679 25.537 9.234v30.872z"/></g></g></g><g><g><path d="m101.798 35.188c-3.215 0-6.4.712-9.333 2.075-4.208-5.581-10.852-8.964-17.85-8.964h-10.2c-21.171 0-38.395 17.224-38.395 38.395v15.338c0 1.381 1.119 2.5 2.5 2.5s2.5-1.119 2.5-2.5v-15.339c0-18.414 14.98-33.395 33.395-33.395h10.2c6.041 0 11.746 3.26 14.891 8.507.341.569.894.979 1.537 1.14.643.159 1.323.06 1.893-.281 2.703-1.62 5.768-2.477 8.862-2.477 9.574 0 17.363 7.79 17.363 17.364v25.431c0 1.381 1.119 2.5 2.5 2.5s2.5-1.119 2.5-2.5v-25.43c0-12.331-10.032-22.364-22.363-22.364z"/></g></g><g><g><path d="m111.592 77.093c-.473 0-.941.021-1.405.061-1.376.118-2.396 1.328-2.278 2.704.118 1.375 1.321 2.398 2.704 2.277.323-.027.649-.042.979-.042 6.627 0 12.019 5.392 12.019 12.019s-5.392 12.019-12.019 12.019c-.351 0-.707-.02-1.09-.059-1.375-.141-2.603.856-2.744 2.229-.143 1.373.855 2.602 2.229 2.744.557.058 1.081.085 1.605.085 9.384 0 17.019-7.634 17.019-17.019s-7.635-17.018-17.019-17.018z"/></g></g><g><g><path d="m38.498 106.087c-.303.027-.608.043-.919.043-6.627 0-12.019-5.392-12.019-12.019s5.392-12.019 12.019-12.019c.316 0 .628.013.937.039 1.368.119 2.584-.912 2.695-2.288.113-1.376-.911-2.583-2.287-2.696-.443-.036-.892-.055-1.345-.055-9.384 0-17.019 7.634-17.019 17.019s7.635 17.019 17.019 17.019c.461 0 .915-.022 1.364-.063 1.376-.124 2.391-1.338 2.268-2.713-.122-1.375-1.346-2.374-2.713-2.267z"/></g></g><g><g><path d="m25.619 204.118h-21.586c-1.381 0-2.5 1.119-2.5 2.5s1.119 2.5 2.5 2.5h21.586c1.381 0 2.5-1.119 2.5-2.5s-1.119-2.5-2.5-2.5z"/></g></g><g><g><g><path d="m134.278 151.045c-14.198 0-25.75 11.551-25.75 25.75s11.552 25.75 25.75 25.75 25.75-11.551 25.75-25.75-11.551-25.75-25.75-25.75zm0 46.5c-11.441 0-20.75-9.309-20.75-20.75s9.309-20.75 20.75-20.75 20.75 9.309 20.75 20.75-9.308 20.75-20.75 20.75z"/></g></g></g><g><g><path d="m134.278 198.163c-1.381 0-2.5 1.119-2.5 2.5v16.848c0 1.381 1.119 2.5 2.5 2.5s2.5-1.119 2.5-2.5v-16.848c0-1.381-1.119-2.5-2.5-2.5z"/></g></g><g><g><path d="m150.658 191.146c-1.381 0-2.5 1.119-2.5 2.5v32.035l-10.094-7.92c-2.23-1.75-5.344-1.75-7.572 0l-10.094 7.919v-31.899c0-1.381-1.119-2.5-2.5-2.5s-2.5 1.119-2.5 2.5v32.67c0 1.785.997 3.379 2.602 4.16 1.607.781 3.476.581 4.878-.521l10.701-8.396c.411-.323.986-.323 1.399 0l10.699 8.396c.835.656 1.836.992 2.848.992.688 0 1.381-.155 2.03-.471 1.605-.781 2.603-2.375 2.603-4.16v-32.805c0-1.381-1.119-2.5-2.5-2.5z"/></g></g><g><g><path d="m194.632 42.173c-1.923-1.922-5.04-1.922-6.963 0l-7.899 7.899-3.96-3.96c-1.923-1.922-5.04-1.922-6.963 0-1.923 1.923-1.923 5.04 0 6.963l7.441 7.441c.962.961 2.221 1.442 3.481 1.442s2.52-.481 3.481-1.442l11.381-11.381c1.924-1.922 1.924-5.039.001-6.962z" fill="#f9d0b4"/></g></g><g><g><path d="m194.632 42.173c-1.923-1.922-5.04-1.922-6.963 0l-7.899 7.899-3.96-3.96c-1.923-1.922-5.04-1.922-6.963 0-1.923 1.923-1.923 5.04 0 6.963l7.441 7.441c.962.961 2.221 1.442 3.481 1.442s2.52-.481 3.481-1.442l11.381-11.381c1.924-1.922 1.924-5.039.001-6.962z" fill="#b2e26d"/></g></g><g><g><g><g><path d="m196.399 40.405c-2.896-2.894-7.605-2.893-10.498 0l-6.132 6.131-2.192-2.192c-2.896-2.895-7.604-2.893-10.497 0-1.402 1.402-2.175 3.266-2.175 5.249s.772 3.848 2.175 5.249l7.441 7.442c1.402 1.401 3.267 2.173 5.248 2.173 1.983 0 3.848-.772 5.249-2.174l11.381-11.38c1.402-1.402 2.175-3.266 2.175-5.249s-.772-3.847-2.175-5.249zm-3.535 6.963-11.381 11.381c-.916.915-2.512.914-3.428 0l-7.44-7.442c-.458-.458-.71-1.066-.71-1.713s.252-1.255.71-1.713c.473-.472 1.093-.708 1.714-.708.62 0 1.24.236 1.713.708l3.96 3.96c.977.977 2.559.977 3.535 0l7.898-7.898c.948-.946 2.484-.944 3.429 0 .458.458.71 1.066.71 1.713 0 .646-.252 1.254-.71 1.712z"/></g></g></g></g><g><g><g><g><path d="m196.399 40.405c-2.896-2.894-7.605-2.893-10.498 0l-6.132 6.131-2.192-2.192c-2.896-2.895-7.604-2.893-10.497 0-1.402 1.402-2.175 3.266-2.175 5.249s.772 3.848 2.175 5.249l7.441 7.442c1.402 1.401 3.267 2.173 5.248 2.173 1.983 0 3.848-.772 5.249-2.174l11.381-11.38c1.402-1.402 2.175-3.266 2.175-5.249s-.772-3.847-2.175-5.249zm-3.535 6.963-11.381 11.381c-.916.915-2.512.914-3.428 0l-7.44-7.442c-.458-.458-.71-1.066-.71-1.713s.252-1.255.71-1.713c.473-.472 1.093-.708 1.714-.708.62 0 1.24.236 1.713.708l3.96 3.96c.977.977 2.559.977 3.535 0l7.898-7.898c.948-.946 2.484-.944 3.429 0 .458.458.71 1.066.71 1.713 0 .646-.252 1.254-.71 1.712z"/></g></g></g></g><g><g><path d="m194.632 79.167c-1.923-1.922-5.04-1.922-6.963 0l-7.899 7.899-3.96-3.96c-1.923-1.922-5.04-1.922-6.963 0-1.923 1.923-1.923 5.04 0 6.963l7.441 7.441c.962.961 2.221 1.442 3.481 1.442s2.52-.481 3.481-1.442l11.381-11.381c1.924-1.922 1.924-5.04.001-6.962z" fill="#f9d0b4"/></g></g><g><g><path d="m194.632 79.167c-1.923-1.922-5.04-1.922-6.963 0l-7.899 7.899-3.96-3.96c-1.923-1.922-5.04-1.922-6.963 0-1.923 1.923-1.923 5.04 0 6.963l7.441 7.441c.962.961 2.221 1.442 3.481 1.442s2.52-.481 3.481-1.442l11.381-11.381c1.924-1.922 1.924-5.04.001-6.962z" fill="#b2e26d"/></g></g><g><g><g><g><path d="m196.399 77.398c-2.896-2.894-7.605-2.893-10.498 0l-6.132 6.131-2.192-2.192c-2.896-2.895-7.604-2.893-10.497 0-2.895 2.894-2.895 7.604 0 10.498l7.44 7.441c1.402 1.402 3.267 2.174 5.249 2.174 1.983 0 3.848-.772 5.249-2.174l11.381-11.38c2.895-2.893 2.895-7.603 0-10.498zm-3.535 6.964-11.382 11.381c-.914.914-2.511.915-3.427 0l-7.44-7.441c-.944-.945-.944-2.482 0-3.427.473-.472 1.093-.708 1.714-.708.62 0 1.24.236 1.713.708l3.96 3.96c.977.977 2.559.977 3.535 0l7.898-7.898c.948-.946 2.484-.944 3.429-.001s.945 2.481 0 3.426z"/></g></g></g></g><g><g><g><g><path d="m196.399 77.398c-2.896-2.894-7.605-2.893-10.498 0l-6.132 6.131-2.192-2.192c-2.896-2.895-7.604-2.893-10.497 0-2.895 2.894-2.895 7.604 0 10.498l7.44 7.441c1.402 1.402 3.267 2.174 5.249 2.174 1.983 0 3.848-.772 5.249-2.174l11.381-11.38c2.895-2.893 2.895-7.603 0-10.498zm-3.535 6.964-11.382 11.381c-.914.914-2.511.915-3.427 0l-7.44-7.441c-.944-.945-.944-2.482 0-3.427.473-.472 1.093-.708 1.714-.708.62 0 1.24.236 1.713.708l3.96 3.96c.977.977 2.559.977 3.535 0l7.898-7.898c.948-.946 2.484-.944 3.429-.001s.945 2.481 0 3.426z"/></g></g></g></g><g><g><path d="m194.632 116.16c-1.923-1.922-5.04-1.922-6.963 0l-7.899 7.899-3.96-3.96c-1.923-1.922-5.04-1.922-6.963 0-1.923 1.923-1.923 5.04 0 6.963l7.441 7.441c.962.961 2.221 1.442 3.481 1.442s2.52-.481 3.481-1.442l11.381-11.381c1.924-1.922 1.924-5.039.001-6.962z" fill="#f9d0b4"/></g></g><g><g><path d="m194.632 116.16c-1.923-1.922-5.04-1.922-6.963 0l-7.899 7.899-3.96-3.96c-1.923-1.922-5.04-1.922-6.963 0-1.923 1.923-1.923 5.04 0 6.963l7.441 7.441c.962.961 2.221 1.442 3.481 1.442s2.52-.481 3.481-1.442l11.381-11.381c1.924-1.922 1.924-5.039.001-6.962z" fill="#b2e26d"/></g></g><g><g><g><g><path d="m196.399 114.392c-2.896-2.894-7.605-2.892-10.498 0l-6.132 6.131-2.192-2.192c-2.896-2.894-7.604-2.893-10.497 0-2.895 2.894-2.895 7.604 0 10.498l7.441 7.442c1.402 1.401 3.267 2.173 5.248 2.173 1.983 0 3.848-.772 5.249-2.174l11.381-11.381c2.895-2.893 2.895-7.603 0-10.497zm-3.535 6.963-11.381 11.381c-.916.915-2.512.914-3.428 0l-7.44-7.441c-.944-.945-.944-2.482 0-3.427.473-.472 1.093-.708 1.714-.708.62 0 1.24.236 1.713.708l3.96 3.96c.977.977 2.559.977 3.535 0l7.898-7.898c.946-.943 2.482-.945 3.429-.001.945.944.945 2.481 0 3.426z"/></g></g></g></g><g><g><g><g><path d="m196.399 114.392c-2.896-2.894-7.605-2.892-10.498 0l-6.132 6.131-2.192-2.192c-2.896-2.894-7.604-2.893-10.497 0-2.895 2.894-2.895 7.604 0 10.498l7.441 7.442c1.402 1.401 3.267 2.173 5.248 2.173 1.983 0 3.848-.772 5.249-2.174l11.381-11.381c2.895-2.893 2.895-7.603 0-10.497zm-3.535 6.963-11.381 11.381c-.916.915-2.512.914-3.428 0l-7.44-7.441c-.944-.945-.944-2.482 0-3.427.473-.472 1.093-.708 1.714-.708.62 0 1.24.236 1.713.708l3.96 3.96c.977.977 2.559.977 3.535 0l7.898-7.898c.946-.943 2.482-.945 3.429-.001.945.944.945 2.481 0 3.426z"/></g></g></g></g><g><g><path d="m194.632 153.153c-1.923-1.922-5.04-1.922-6.963 0l-7.899 7.899-3.96-3.96c-1.923-1.922-5.04-1.922-6.963 0-1.923 1.923-1.923 5.04 0 6.963l7.441 7.441c.962.961 2.221 1.442 3.481 1.442s2.52-.481 3.481-1.442l11.381-11.381c1.924-1.922 1.924-5.039.001-6.962z" fill="#f9d0b4"/></g></g><g><g><path d="m194.632 153.153c-1.923-1.922-5.04-1.922-6.963 0l-7.899 7.899-3.96-3.96c-1.923-1.922-5.04-1.922-6.963 0-1.923 1.923-1.923 5.04 0 6.963l7.441 7.441c.962.961 2.221 1.442 3.481 1.442s2.52-.481 3.481-1.442l11.381-11.381c1.924-1.922 1.924-5.039.001-6.962z" fill="#b2e26d"/></g></g><g><g><g><g><path d="m196.399 151.385c-2.896-2.894-7.605-2.893-10.498 0l-6.132 6.131-2.192-2.192c-2.896-2.894-7.604-2.893-10.497 0-2.895 2.894-2.895 7.604 0 10.498l7.441 7.442c1.402 1.401 3.267 2.173 5.248 2.173 1.983 0 3.848-.772 5.249-2.174l11.381-11.38c1.402-1.402 2.175-3.266 2.175-5.25 0-1.982-.772-3.846-2.175-5.248zm-3.535 6.963-11.381 11.381c-.916.915-2.512.914-3.428 0l-7.44-7.441c-.944-.945-.944-2.482 0-3.427.473-.472 1.093-.708 1.714-.708.62 0 1.24.236 1.713.708l3.96 3.96c.977.977 2.559.976 3.535 0l7.898-7.898c.948-.946 2.484-.944 3.429 0 .458.458.71 1.066.71 1.713 0 .646-.252 1.254-.71 1.712z"/></g></g></g></g><g><g><g><g><path d="m196.399 151.385c-2.896-2.894-7.605-2.893-10.498 0l-6.132 6.131-2.192-2.192c-2.896-2.894-7.604-2.893-10.497 0-2.895 2.894-2.895 7.604 0 10.498l7.441 7.442c1.402 1.401 3.267 2.173 5.248 2.173 1.983 0 3.848-.772 5.249-2.174l11.381-11.38c1.402-1.402 2.175-3.266 2.175-5.25 0-1.982-.772-3.846-2.175-5.248zm-3.535 6.963-11.381 11.381c-.916.915-2.512.914-3.428 0l-7.44-7.441c-.944-.945-.944-2.482 0-3.427.473-.472 1.093-.708 1.714-.708.62 0 1.24.236 1.713.708l3.96 3.96c.977.977 2.559.976 3.535 0l7.898-7.898c.948-.946 2.484-.944 3.429 0 .458.458.71 1.066.71 1.713 0 .646-.252 1.254-.71 1.712z"/></g></g></g></g><g><g><path d="m253.5 43.27h-45c-1.381 0-2.5 1.119-2.5 2.5s1.119 2.5 2.5 2.5h45c1.381 0 2.5-1.119 2.5-2.5s-1.119-2.5-2.5-2.5z"/></g></g><g><g><path d="m241.5 53.27h-33c-1.381 0-2.5 1.119-2.5 2.5s1.119 2.5 2.5 2.5h33c1.381 0 2.5-1.119 2.5-2.5s-1.119-2.5-2.5-2.5z"/></g></g><g><g><path d="m253.5 80.263h-45c-1.381 0-2.5 1.119-2.5 2.5s1.119 2.5 2.5 2.5h45c1.381 0 2.5-1.119 2.5-2.5s-1.119-2.5-2.5-2.5z"/></g></g><g><g><path d="m241.5 90.263h-33c-1.381 0-2.5 1.119-2.5 2.5s1.119 2.5 2.5 2.5h33c1.381 0 2.5-1.119 2.5-2.5s-1.119-2.5-2.5-2.5z"/></g></g><g><g><path d="m253.5 117.256h-45c-1.381 0-2.5 1.119-2.5 2.5s1.119 2.5 2.5 2.5h45c1.381 0 2.5-1.119 2.5-2.5s-1.119-2.5-2.5-2.5z"/></g></g><g><g><path d="m241.5 127.256h-33c-1.381 0-2.5 1.119-2.5 2.5s1.119 2.5 2.5 2.5h33c1.381 0 2.5-1.119 2.5-2.5s-1.119-2.5-2.5-2.5z"/></g></g><g><g><path d="m253.5 154.25h-45c-1.381 0-2.5 1.119-2.5 2.5s1.119 2.5 2.5 2.5h45c1.381 0 2.5-1.119 2.5-2.5s-1.119-2.5-2.5-2.5z"/></g></g><g><g><path d="m241.5 164.25h-33c-1.381 0-2.5 1.119-2.5 2.5s1.119 2.5 2.5 2.5h33c1.381 0 2.5-1.119 2.5-2.5s-1.119-2.5-2.5-2.5z"/></g></g><g><g><path d="m29.8 133.77c-4.5-.8-8-4.3-8.9-8.7 0-.2-.4-.2-.4 0-.9 4.4-4.4 7.9-8.9 8.7-.2 0-.2.3 0 .4 4.5.8 8 4.3 8.9 8.7 0 .2.4.2.4 0 .9-4.4 4.4-7.9 8.9-8.7.2-.1.2-.4 0-.4z" fill="#f5c84c"/></g></g><g><g><path d="m147.61 31.13c-3.157-.561-5.613-3.017-6.245-6.104 0-.14-.281-.14-.281 0-.632 3.087-3.087 5.543-6.245 6.104-.14 0-.14.211 0 .281 3.157.561 5.613 3.017 6.245 6.104 0 .14.281.14.281 0 .631-3.087 3.087-5.543 6.245-6.104.14-.071.14-.281 0-.281z" fill="#87d147"/></g></g><g><g><path d="m198.7 196.02h-2.3v-2.3c0-1.7-1.4-3.2-3.2-3.2s-3.2 1.4-3.2 3.2v2.3h-2.3c-1.7 0-3.2 1.4-3.2 3.2s1.4 3.2 3.2 3.2h2.3v2.3c0 1.7 1.4 3.2 3.2 3.2s3.2-1.4 3.2-3.2v-2.3h2.3c1.7 0 3.2-1.4 3.2-3.2s-1.4-3.2-3.2-3.2z" fill="#70d6f9"/></g></g><g><g><path d="m7.8 106.92c-1.878 0-3.4 1.522-3.4 3.4s1.522 3.4 3.4 3.4 3.4-1.522 3.4-3.4-1.522-3.4-3.4-3.4z" fill="#fc657e"/></g></g><g><g><path d="m173.8 218.92c-1.878 0-3.4 1.522-3.4 3.4s1.522 3.4 3.4 3.4 3.4-1.522 3.4-3.4-1.522-3.4-3.4-3.4z" fill="#f5c84c"/></g></g><g><g><g><path d="m149.706 171.929c-.498-1.533-1.798-2.629-3.394-2.861l-5.711-.83-2.555-5.176c-.713-1.445-2.157-2.342-3.769-2.342-.001 0-.001 0-.002 0-1.611 0-3.055.898-3.768 2.343l-2.555 5.176-5.711.83c-1.595.232-2.895 1.328-3.393 2.861s-.091 3.184 1.063 4.309l4.132 4.028-.975 5.688c-.273 1.589.367 3.164 1.671 4.112.737.536 1.6.808 2.467.808.668 0 1.34-.162 1.96-.488l5.109-2.686 5.107 2.685c1.427.75 3.121.629 4.428-.319 1.304-.948 1.944-2.523 1.671-4.11l-.975-5.688 4.133-4.029c1.157-1.128 1.565-2.779 1.067-4.311zm-8.986 5.048c-.991.966-1.443 2.357-1.209 3.72l.772 4.51-4.05-2.129c-1.226-.644-2.688-.643-3.911 0l-4.05 2.129.772-4.509c.234-1.364-.218-2.755-1.208-3.72l-3.276-3.194 4.527-.658c1.369-.199 2.552-1.059 3.165-2.299l2.025-4.104 2.024 4.104c.613 1.24 1.796 2.1 3.165 2.299l4.528.658z"/></g></g></g></g></g></svg>