<?xml version="1.0" standalone="no"?><svg xmlns="http://www.w3.org/2000/svg" viewBox="0 0 1440 320"><path fill="#dc3545" fill-opacity="1" d="M0,96L17.1,117.3C34.3,139,69,181,103,181.3C137.1,181,171,139,206,112C240,85,274,75,309,112C342.9,149,377,235,411,234.7C445.7,235,480,149,514,149.3C548.6,149,583,235,617,245.3C651.4,256,686,192,720,149.3C754.3,107,789,85,823,106.7C857.1,128,891,192,926,208C960,224,994,192,1029,197.3C1062.9,203,1097,245,1131,234.7C1165.7,224,1200,160,1234,122.7C1268.6,85,1303,75,1337,64C1371.4,53,1406,43,1423,37.3L1440,32L1440,320L1422.9,320C1405.7,320,1371,320,1337,320C1302.9,320,1269,320,1234,320C1200,320,1166,320,1131,320C1097.1,320,1063,320,1029,320C994.3,320,960,320,926,320C891.4,320,857,320,823,320C788.6,320,754,320,720,320C685.7,320,651,320,617,320C582.9,320,549,320,514,320C480,320,446,320,411,320C377.1,320,343,320,309,320C274.3,320,240,320,206,320C171.4,320,137,320,103,320C68.6,320,34,320,17,320L0,320Z"></path></svg>